<svg xmlns="http://www.w3.org/2000/svg" xmlns:xlink="http://www.w3.org/1999/xlink" viewBox="0 0 361.53 471.83"><defs><style>.cls-1,.cls-7{fill:#2e3436;}.cls-2{fill:url(#linear-gradient);}.cls-3{opacity:0.55;fill:url(#linear-gradient-2);}.cls-10,.cls-19,.cls-3,.cls-6,.cls-7{isolation:isolate;}.cls-10,.cls-19,.cls-28,.cls-31,.cls-4{fill-rule:evenodd;}.cls-4{fill:url(#linear-gradient-3);}.cls-5{fill:url(#linear-gradient-4);}.cls-6,.cls-7{opacity:0.4;}.cls-6{fill:url(#linear-gradient-5);}.cls-8{fill:url(#linear-gradient-6);}.cls-9{fill:url(#linear-gradient-7);}.cls-10,.cls-19,.cls-28,.cls-30{fill:#555753;}.cls-10{opacity:0.64;}.cls-11,.cls-12,.cls-13,.cls-14,.cls-15,.cls-16,.cls-17,.cls-20,.cls-21,.cls-22,.cls-23,.cls-24,.cls-25,.cls-26,.cls-29{stroke-linecap:round;stroke-linejoin:round;}.cls-11,.cls-12,.cls-13,.cls-14,.cls-15,.cls-16,.cls-17,.cls-20,.cls-21,.cls-22,.cls-23,.cls-24,.cls-25,.cls-26{stroke-width:2.14px;}.cls-11{stroke:url(#linear-gradient-8);}.cls-12{stroke:url(#linear-gradient-9);}.cls-13{stroke:url(#linear-gradient-10);}.cls-14{stroke:url(#linear-gradient-11);}.cls-15{stroke:url(#linear-gradient-12);}.cls-16{stroke:url(#linear-gradient-13);}.cls-17{stroke:url(#linear-gradient-14);}.cls-18{fill:#ebebe9;}.cls-19{opacity:0.73;}.cls-20{stroke:url(#linear-gradient-15);}.cls-21{stroke:url(#linear-gradient-16);}.cls-22{stroke:url(#linear-gradient-17);}.cls-23{stroke:url(#linear-gradient-18);}.cls-24{stroke:url(#linear-gradient-19);}.cls-25{stroke:url(#linear-gradient-20);}.cls-26{stroke:url(#linear-gradient-21);}.cls-27{fill:none;}.cls-27,.cls-29{stroke:#fff;}.cls-28{stroke:#555753;}.cls-29{stroke-width:0.26px;fill:url(#linear-gradient-22);}.cls-31{fill:#babdb6;}.cls-32{fill:url(#linear-gradient-23);}.cls-33{fill:url(#linear-gradient-24);}.cls-34{fill:url(#linear-gradient-25);}.cls-35{fill:url(#linear-gradient-26);}.cls-36{fill:url(#linear-gradient-27);}.cls-37{fill:url(#linear-gradient-28);}.cls-38{fill:url(#linear-gradient-29);}.cls-39{fill:url(#linear-gradient-30);}.cls-40{fill:url(#linear-gradient-31);}.cls-41{fill:url(#linear-gradient-32);}.cls-42{fill:url(#linear-gradient-33);}.cls-43{fill:url(#linear-gradient-34);}.cls-44{fill:url(#linear-gradient-35);}</style><linearGradient id="linear-gradient" x1="121.73" y1="-1866.93" x2="197.97" y2="-1866.93" gradientTransform="matrix(1, 0, 0, -1, 34.72, -1520.62)" gradientUnits="userSpaceOnUse"><stop offset="0" stop-color="#d3d7cf"/><stop offset="0.14" stop-color="#eeeeec"/><stop offset="0.3" stop-color="#888a85"/><stop offset="0.72" stop-color="#d3d7cf"/><stop offset="0.86" stop-color="#eeeeec"/><stop offset="1" stop-color="#888a85"/></linearGradient><linearGradient id="linear-gradient-2" x1="161.85" y1="-1826.43" x2="161.85" y2="-1883.43" gradientTransform="matrix(1, 0, 0, -1, 32.72, -1543.12)" gradientUnits="userSpaceOnUse"><stop offset="0" stop-color="#555753"/><stop offset="1" stop-color="#555753" stop-opacity="0"/></linearGradient><linearGradient id="linear-gradient-3" x1="249.01" y1="-1902.92" x2="249.01" y2="-1957.42" gradientTransform="matrix(1, 0, 0, -1, -53.28, -1570.12)" gradientUnits="userSpaceOnUse"><stop offset="0" stop-color="#fff"/><stop offset="1" stop-color="#fff" stop-opacity="0.29"/></linearGradient><linearGradient id="linear-gradient-4" x1="-27.41" y1="-2037.28" x2="-25.18" y2="-2067.78" gradientTransform="matrix(1.57, 0, 0, -0.89, 235.87, -1479.28)" gradientUnits="userSpaceOnUse"><stop offset="0" stop-color="#fff"/><stop offset="1" stop-color="#fff" stop-opacity="0"/></linearGradient><linearGradient id="linear-gradient-5" x1="261.05" y1="-1960.98" x2="261.05" y2="-1997.23" gradientTransform="matrix(1, 0, 0, -1, -61.28, -1608.87)" xlink:href="#linear-gradient-4"/><linearGradient id="linear-gradient-6" x1="-27.41" y1="1292.58" x2="-25.18" y2="1262.08" gradientTransform="translate(236.12 -414.72) scale(1.57 0.66)" xlink:href="#linear-gradient-4"/><linearGradient id="linear-gradient-7" x1="101.79" y1="-1765.31" x2="219.79" y2="-1765.31" gradientTransform="matrix(1, 0, 0, -1, 31.18, -1543.95)" xlink:href="#linear-gradient"/><linearGradient id="linear-gradient-8" x1="-15.55" y1="-1297.27" x2="1.37" y2="-1307.29" gradientTransform="matrix(1.3, 0, 0, -1.52, 146.67, -1802.44)" gradientUnits="userSpaceOnUse"><stop offset="0" stop-color="#fff"/><stop offset="1" stop-color="#585858"/></linearGradient><linearGradient id="linear-gradient-9" x1="1.88" y1="-1350.27" x2="18.8" y2="-1360.29" gradientTransform="matrix(1.22, 0, 0, -1.43, 112.8, -1750.44)" xlink:href="#linear-gradient-8"/><linearGradient id="linear-gradient-10" x1="21.69" y1="-1410.48" x2="38.61" y2="-1420.5" gradientTransform="matrix(1.14, 0, 0, -1.34, 83.92, -1695.43)" xlink:href="#linear-gradient-8"/><linearGradient id="linear-gradient-11" x1="44.37" y1="-1479.51" x2="61.29" y2="-1489.53" gradientTransform="matrix(1.06, 0, 0, -1.25, 54.08, -1636.42)" xlink:href="#linear-gradient-8"/><linearGradient id="linear-gradient-12" x1="70.66" y1="-1559.44" x2="87.59" y2="-1569.46" gradientTransform="matrix(0.99, 0, 0, -1.16, 28.2, -1581.42)" xlink:href="#linear-gradient-8"/><linearGradient id="linear-gradient-13" x1="101.46" y1="-1653.07" x2="118.38" y2="-1663.09" gradientTransform="matrix(0.91, 0, 0, -1.07, 3.33, -1525.41)" xlink:href="#linear-gradient-8"/><linearGradient id="linear-gradient-14" x1="138.02" y1="-1764.25" x2="154.95" y2="-1774.27" gradientTransform="matrix(0.83, 0, 0, -0.97, -21.54, -1471.41)" xlink:href="#linear-gradient-8"/><linearGradient id="linear-gradient-15" x1="-561.59" y1="-1297.27" x2="-544.66" y2="-1307.29" gradientTransform="translate(-464.8 -1800.44) rotate(180) scale(1.3 1.52)" xlink:href="#linear-gradient-8"/><linearGradient id="linear-gradient-16" x1="-579.02" y1="-1350.27" x2="-562.1" y2="-1360.29" gradientTransform="translate(-430.92 -1748.44) rotate(180) scale(1.22 1.43)" xlink:href="#linear-gradient-8"/><linearGradient id="linear-gradient-17" x1="-598.83" y1="-1410.48" x2="-581.91" y2="-1420.5" gradientTransform="translate(-402.05 -1693.43) rotate(180) scale(1.14 1.34)" xlink:href="#linear-gradient-8"/><linearGradient id="linear-gradient-18" x1="-621.51" y1="-1479.51" x2="-604.58" y2="-1489.53" gradientTransform="translate(-372.21 -1634.42) rotate(180) scale(1.06 1.25)" xlink:href="#linear-gradient-8"/><linearGradient id="linear-gradient-19" x1="-647.8" y1="-1559.44" x2="-630.88" y2="-1569.46" gradientTransform="translate(-346.33 -1579.42) rotate(180) scale(0.99 1.16)" xlink:href="#linear-gradient-8"/><linearGradient id="linear-gradient-20" x1="-678.6" y1="-1653.07" x2="-661.67" y2="-1663.09" gradientTransform="translate(-321.46 -1523.41) rotate(180) scale(0.91 1.07)" xlink:href="#linear-gradient-8"/><linearGradient id="linear-gradient-21" x1="-715.16" y1="-1764.25" x2="-698.24" y2="-1774.27" gradientTransform="translate(-297.59 -1469.41) rotate(180) scale(0.83 0.97)" xlink:href="#linear-gradient-8"/><linearGradient id="linear-gradient-22" x1="495.9" y1="-1820.26" x2="737.73" y2="-1934.1" gradientTransform="matrix(0.96, 0.06, 0.06, -0.96, -315.38, -1489.28)" gradientUnits="userSpaceOnUse"><stop offset="0" stop-color="#eeeeec"/><stop offset="1" stop-color="#d3d7cf"/></linearGradient><linearGradient id="linear-gradient-23" x1="307.72" y1="93.58" x2="95.36" y2="92.35" gradientUnits="userSpaceOnUse"><stop offset="0.13" stop-color="#d3d7cf"/><stop offset="0.26" stop-color="#eeeeec"/><stop offset="0.44" stop-color="#888a85"/><stop offset="0.63" stop-color="#d3d7cf"/><stop offset="0.75" stop-color="#eeeeec"/><stop offset="0.92" stop-color="#888a85"/></linearGradient><linearGradient id="linear-gradient-24" x1="223.39" y1="204.65" x2="366.68" y2="204.65" gradientTransform="translate(-102.1 -110.36) rotate(0.37)" gradientUnits="userSpaceOnUse"><stop offset="0" stop-color="#2b3582"/><stop offset="1" stop-color="#150e42"/></linearGradient><linearGradient id="linear-gradient-25" x1="271.58" y1="181.73" x2="199.64" y2="291.4" gradientTransform="matrix(0.47, 0.88, -0.88, 0.47, 214.06, -226.24)" gradientUnits="userSpaceOnUse"><stop offset="0" stop-color="#53d8ff"/><stop offset="1" stop-color="#3840f7"/></linearGradient><linearGradient id="linear-gradient-26" x1="345.93" y1="186.28" x2="273.99" y2="295.95" gradientTransform="translate(-23.58 -201.45) rotate(18.04)" xlink:href="#linear-gradient-25"/><linearGradient id="linear-gradient-27" x1="9.72" y1="90.37" x2="37.13" y2="127.22" gradientTransform="matrix(1, -0.06, 0.06, 1, 117.83, -16.98)" xlink:href="#linear-gradient-25"/><linearGradient id="linear-gradient-28" x1="86.85" y1="95.57" x2="114.26" y2="132.43" gradientTransform="matrix(1, -0.06, 0.06, 1, 117.83, -16.98)" xlink:href="#linear-gradient-25"/><linearGradient id="linear-gradient-29" x1="210.84" y1="130" x2="204.72" y2="185.13" gradientTransform="translate(-102.1 -110.36) rotate(0.37)" xlink:href="#linear-gradient"/><linearGradient id="linear-gradient-30" x1="210.81" y1="159.13" x2="228.65" y2="159.13" xlink:href="#linear-gradient-24"/><linearGradient id="linear-gradient-31" x1="216.16" y1="136.86" x2="210.32" y2="189.41" gradientTransform="translate(-102.1 -110.36) rotate(0.37)" xlink:href="#linear-gradient"/><linearGradient id="linear-gradient-32" x1="384.77" y1="129.57" x2="378.65" y2="184.7" gradientTransform="translate(-102.1 -110.36) rotate(0.37)" xlink:href="#linear-gradient"/><linearGradient id="linear-gradient-33" x1="366.84" y1="159.13" x2="384.69" y2="159.13" xlink:href="#linear-gradient-24"/><linearGradient id="linear-gradient-34" x1="380.42" y1="137.98" x2="374.53" y2="191.06" gradientTransform="translate(-102.1 -110.36) rotate(0.37)" xlink:href="#linear-gradient"/><linearGradient id="linear-gradient-35" x1="-46.94" y1="31.57" x2="139.9" y2="173.01" gradientTransform="matrix(1, -0.06, 0.06, 1, 117.83, -16.98)" xlink:href="#linear-gradient-25"/></defs><g id="Layer_1" data-name="Layer 1"><rect id="rect4005" class="cls-1" x="160.01" y="376.5" width="68.5" height="16" rx="7.35"/><path id="path4007" class="cls-2" d="M167.05,293.65a10.58,10.58,0,0,0-10.6,10.6v84.14A10.58,10.58,0,0,0,167.05,399h6.66V344.17a10.75,10.75,0,0,1,10.79-10.75h20.14a10.76,10.76,0,0,1,10.8,10.75V399h6.66a10.58,10.58,0,0,0,10.59-10.59V304.25a10.58,10.58,0,0,0-10.59-10.6Z"/><path id="path4009" class="cls-3" d="M167.05,293.15a10.58,10.58,0,0,0-10.6,10.6v84.14a10.58,10.58,0,0,0,10.6,10.59h6.66V343.67a10.75,10.75,0,0,1,10.79-10.75h20.14a10.76,10.76,0,0,1,10.8,10.75v54.81h6.66a10.58,10.58,0,0,0,10.59-10.59V303.75a10.58,10.58,0,0,0-10.59-10.6Z"/><g id="g4011"><rect id="rect4013" class="cls-1" x="178.02" y="341.54" width="34.37" height="93.68" rx="8.87"/><path id="path4015" class="cls-4" d="M187.17,343.42l-.19.13-8.59,4.65.37.66,8.41-4.56,8.4,4.56.16.09.16-.06,8.46-3.06,8.47,3.06.25-.72-8.59-3.12-.13,0-.12,0-8.44,3.06-8.44-4.56-.18-.13Zm0,10.1-.19.09-8.59,4.65.37.69,8.41-4.56,8.4,4.56.16.1.16-.07,8.46-3.06,8.47,3.06.25-.72-8.59-3.12-.13,0-.12,0-8.41,3.06-8.47-4.59-.18-.09Zm0,14.74-.19.1L178.39,373l.37.68,8.41-4.56,8.4,4.56.16.1.16-.07,8.46-3.09,8.47,3.09.25-.75-8.59-3.09-.13,0-.12,0-8.44,3-8.44-4.56-.18-.1Zm0,16.32-.19.09-8.59,4.66.37.69,8.41-4.57,8.4,4.57.16.06.16-.06,8.46-3.07,8.47,3.07.25-.72-8.59-3.1-.13-.06-.12.06-8.44,3-8.44-4.56-.18-.09Zm0,16.28L187,401l-8.59,4.66.37.69,8.41-4.57,8.4,4.57.16.09.16-.06,8.46-3.1,8.47,3.1.25-.75-8.59-3.1-.13,0-.12,0-8.44,3L187.35,401l-.18-.09Zm0,14.75-.19.09-8.59,4.66.37.69,8.41-4.57,8.4,4.57.16.09.16-.06,8.46-3.1,8.47,3.1.25-.75-8.59-3.1-.13-.06-.12.06-8.44,3-8.44-4.56-.18-.09Zm0,10.09-.19.1-8.59,4.65.37.69,8.41-4.56,8.4,4.56.16.06.16-.06,8.46-3.06,8.47,3.06.25-.72-8.59-3.09-.13-.07-.12.07-8.44,3-8.44-4.56-.18-.1Z"/><rect id="rect4017" class="cls-5" x="178.38" y="340.9" width="33.81" height="27.16" rx="7.35"/><path id="path4019" class="cls-6" d="M199,343.64c3,0,5.45,3.48,5.45,7.78v73.94c0,4.29-2.43,7.75-5.45,7.75h-4V343.64Z"/><path id="path4021" class="cls-7" d="M190.74,342.89c-3,0-5.44,3.48-5.44,7.78v73.94c0,4.29,2.43,7.75,5.44,7.75h4V342.89Z"/><rect id="rect4023" class="cls-8" x="178.63" y="415.15" width="33.81" height="20.16" rx="5.45"/></g><rect id="rect4043" class="cls-9" x="124.74" y="143.08" width="132.33" height="156.57" rx="11.43"/><path id="path4049" class="cls-10" d="M151,187.67l-16,39.5-10.5,8.5.5-37.5,29-10.5"/><path id="path4051" class="cls-11" d="M151.72,177.65c0,14.5-7.4,26.25-16.53,26.25s-16.53-11.75-16.53-26.25,7.4-26.25,16.53-26.25S151.72,163.16,151.72,177.65Z"/><path id="path4053" class="cls-12" d="M138.78,186.65c0,13.63-7,24.68-15.54,24.68s-15.53-11.05-15.53-24.68,7-24.67,15.53-24.67S138.78,173,138.78,186.65Z"/><path id="path4055" class="cls-13" d="M130.84,198.66c0,12.76-6.51,23.1-14.54,23.1s-14.55-10.34-14.55-23.1,6.52-23.1,14.55-23.1S130.84,185.9,130.84,198.66Z"/><path id="path4057" class="cls-14" d="M121.91,214.66c0,11.89-6.07,21.52-13.55,21.52S94.8,226.55,94.8,214.66s6.07-21.53,13.56-21.53S121.91,202.77,121.91,214.66Z"/><path id="path4059" class="cls-15" d="M117,226.66c0,11-5.62,20-12.56,20s-12.56-8.93-12.56-20,5.62-19.95,12.56-19.95S117,215.64,117,226.66Z"/><path id="path4061" class="cls-16" d="M113,239.66c0,10.15-5.18,18.38-11.57,18.38S89.9,249.81,89.9,239.66s5.18-18.37,11.57-18.37S113,229.51,113,239.66Z"/><path id="path4063" class="cls-17" d="M109.1,250.67c0,9.28-4.73,16.8-10.58,16.8S88,260,88,250.67s4.73-16.8,10.57-16.8S109.1,241.39,109.1,250.67Z"/><path id="path4065" class="cls-18" d="M108.72,251.8c0,3.52-4.43,6.37-9.88,6.37S89,255.32,89,251.8s4.42-6.38,9.87-6.38S108.72,248.28,108.72,251.8Z"/><path id="path4067" class="cls-19" d="M236.47,190.17l16,39.5,4.5,10,5.5-39"/><path id="path4069" class="cls-20" d="M238,179.65c0,14.5,7.4,26.25,16.52,26.25S271,194.15,271,179.65s-7.4-26.25-16.53-26.25S238,165.16,238,179.65Z"/><path id="path4071" class="cls-21" d="M250.92,188.65c0,13.63,7,24.68,15.54,24.68S282,202.28,282,188.65,275,164,266.46,164,250.92,175,250.92,188.65Z"/><path id="path4073" class="cls-22" d="M258.86,200.66c0,12.76,6.51,23.1,14.54,23.1S288,213.42,288,200.66s-6.51-23.1-14.55-23.1S258.86,187.9,258.86,200.66Z"/><path id="path4075" class="cls-23" d="M267.79,216.66c0,11.89,6.07,21.52,13.55,21.52s13.56-9.63,13.56-21.52-6.07-21.53-13.56-21.53S267.79,204.77,267.79,216.66Z"/><path id="path4077" class="cls-24" d="M272.73,228.66c0,11,5.62,20,12.56,20s12.56-8.93,12.56-20-5.62-19.95-12.56-19.95S272.73,217.64,272.73,228.66Z"/><path id="path4079" class="cls-25" d="M276.66,241.66c0,10.15,5.18,18.38,11.57,18.38s11.57-8.23,11.57-18.38-5.18-18.37-11.57-18.37S276.66,231.51,276.66,241.66Z"/><path id="path4081" class="cls-26" d="M279.6,252.67c0,9.28,4.74,16.8,10.58,16.8s10.58-7.52,10.58-16.8-4.74-16.8-10.58-16.8S279.6,243.39,279.6,252.67Z"/><path id="path4083" class="cls-27" d="M125.22,254l132.23.7"/><path id="path4085" class="cls-28" d="M125.22,253l132.23.71"/><path id="path4087" class="cls-29" d="M39.26,270.3a11,11,0,0,0-10.63,10.35l-.78,12a38.39,38.39,0,0,0,7-.31c-2.61,1.37-2.31.81-4,1.68a31.05,31.05,0,0,1-3.25,1.72l-.37,5.47a37.94,37.94,0,0,0,6.09-.37c-2.61,1.37-2.31.81-4,1.68-.43.23-1.29.75-2.28,1.25L19.94,415.12a11.06,11.06,0,0,0,10.35,11.75L300,444.27l27.4-17.34,8.16-126.47a11,11,0,0,0-10.31-11.78L40.38,270.3C40,270.28,39.63,270.29,39.26,270.3Z"/><path id="path4089" class="cls-30" d="M93.72,254.82a84.71,84.71,0,0,0-8.53.25c-.69.4-13.31,22.21-13.31,23s12.5,22.63,13.19,23a42.11,42.11,0,0,0,5.28.25V299.6c-1-2-5.47-13.84-5.47-14.31s5.25-14.31,5.69-14.56,16.44-.26,16.87,0a30.35,30.35,0,0,1,1.69,3.87l.66,0,12.66,1.06c-3.5-6.42-10.14-20.19-10.66-20.49S101.34,254.78,93.72,254.82Z"/><path id="path4091" class="cls-18" d="M108.72,251.8c0,3.52-4.43,6.37-9.88,6.37S89,255.32,89,251.8s4.42-6.38,9.87-6.38S108.72,248.28,108.72,251.8Z"/><path id="path4093" class="cls-31" d="M89.51,273.87s8.13,1.06,10.25.35c-1.77,3.18-6.72,11-6.72,11l2.13,12.73-6-2.12L86,284.47Z"/><path id="path4095" class="cls-30" d="M277.54,254.21c-.75.28-16.87,19.65-17,20.44s8.57,24.43,9.19,24.94a41.75,41.75,0,0,0,5.12,1.12l.31-1.72c-.66-2.1-3.08-14.6-3-15.06s7.59-13.23,8.07-13.41,16.2,2.52,16.59,2.85,2.27,9.85,2.94,13.72l10,.68a44.11,44.11,0,0,0,3.12-4.09c.14-.79-8.57-24.46-9.18-25-.39-.32-10.24-2.11-17.76-3.34a80.56,80.56,0,0,0-8.43-1.16Z"/><path id="path4097" class="cls-18" d="M302.72,252.8c0,3.52-4.43,6.37-9.88,6.37S283,256.32,283,252.8s4.42-6.38,9.87-6.38S302.72,249.28,302.72,252.8Z"/><path id="path4099" class="cls-31" d="M279,286.18l2.13,12.73-6-2.12L272,285.47C278.61,284.85,276.14,285.83,279,286.18Z"/><path id="path4101" class="cls-31" d="M326.85,426.79c-2.5,1.5-26.5,17.25-26.5,17.25s-3-21.44,1-24.25C305.1,417.13,326.85,426.79,326.85,426.79Z"/></g><g id="Layer_2" data-name="Layer 2"><path class="cls-32" d="M245.79,42.55l-102.23-.66A44.35,44.35,0,0,0,99.05,85.83l-.26,40.49a16.72,16.72,0,0,0,16.56,16.77l157.33,1a16.72,16.72,0,0,0,16.78-16.56l.26-40.49A44.35,44.35,0,0,0,245.79,42.55Z"/><path class="cls-33" d="M263.22,100.67a13.71,13.71,0,0,1-12.5,13.59,638.5,638.5,0,0,1-118.4-.8A13.75,13.75,0,0,1,119.93,99.7l0-7.44a13.73,13.73,0,0,1,12.45-13.59c39.6-3.68,79.19-4.11,118.77.58A13.71,13.71,0,0,1,263.27,93Z"/><circle class="cls-34" cx="152.93" cy="96.23" r="8.7" transform="translate(-4.26 185.33) rotate(-61.72)"/><circle class="cls-35" cx="230.27" cy="96.73" r="8.7" transform="translate(-18.5 74.44) rotate(-17.67)"/><path class="cls-36" d="M153.12,108.34a.51.51,0,1,1,.53.48h0A.51.51,0,0,1,153.12,108.34Zm-2.62.27a.52.52,0,0,1-.4-.61.5.5,0,0,1,.6-.4.51.51,0,0,1-.1,1Zm5.62-.7a.51.51,0,0,1,1-.31.51.51,0,0,1-.33.65.41.41,0,0,1-.15,0A.5.5,0,0,1,156.12,107.91Zm-8.62-.3a.51.51,0,1,1,.22,0A.47.47,0,0,1,147.5,107.61Zm11.42-.85a.52.52,0,0,1,.87-.56.53.53,0,0,1-.16.72.49.49,0,0,1-.28.07A.5.5,0,0,1,158.92,106.76Zm-14.07-.86a.5.5,0,0,1-.06-.72.51.51,0,0,1,.72-.06.52.52,0,0,1,.06.72.53.53,0,0,1-.4.19A.45.45,0,0,1,144.85,105.9Zm16.49-1a.52.52,0,1,1,.73,0,.48.48,0,0,1-.37.15A.61.61,0,0,1,161.34,104.94Zm-18.65-1.35a.52.52,0,1,1,.72.12.51.51,0,0,1-.72-.12Zm20.56-1a.51.51,0,1,1,.5-.9.51.51,0,0,1,.2.7.52.52,0,0,1-.46.27A.42.42,0,0,1,163.25,102.57Zm-22.06-1.75a.52.52,0,1,1,1-.38.52.52,0,0,1-.3.67.65.65,0,0,1-.19,0A.52.52,0,0,1,141.19,100.82Zm23.31-1a.51.51,0,0,1-.37-.63.54.54,0,0,1,.63-.37.52.52,0,0,1,.37.63h0a.53.53,0,0,1-.51.38Zm-24.08-2.06a.51.51,0,1,1,1-.12.51.51,0,0,1-.45.57h-.07A.5.5,0,0,1,140.42,97.75Zm24.1-1.44v0a.5.5,0,0,1,.51-.51.51.51,0,0,1,.51.51v.06a.51.51,0,1,1-1,0Zm0,0Zm-23.64-1.09a.51.51,0,1,1,.13-1,.5.5,0,0,1,.44.57.51.51,0,0,1-.52.45Zm23.28-1.79a.52.52,0,0,1,1-.26.53.53,0,0,1-.38.63h-.13A.51.51,0,0,1,164.16,93.38Zm-22.65-1.17a.51.51,0,0,1-.28-.67.52.52,0,0,1,.67-.29.52.52,0,0,1,.28.67.53.53,0,0,1-.48.33A.72.72,0,0,1,141.51,92.21Zm21.59-1.53a.51.51,0,0,1,.2-.69.51.51,0,0,1,.7.2.52.52,0,0,1-.45.76A.51.51,0,0,1,163.1,90.68ZM142.88,89.5a.51.51,0,1,1,.6-.83.52.52,0,0,1,.12.72.57.57,0,0,1-.42.21A.45.45,0,0,1,142.88,89.5Zm18.52-1.17a.51.51,0,0,1,0-.73.52.52,0,0,1,.73,0,.5.5,0,0,1,0,.72.54.54,0,0,1-.35.14A.51.51,0,0,1,161.4,88.33Zm-16.54-1.12a.52.52,0,0,1,.8-.66.52.52,0,0,1-.41.85A.54.54,0,0,1,144.86,87.21Zm14.31-.74a.51.51,0,1,1,.55-.87.51.51,0,0,1-.28,1A.47.47,0,0,1,159.17,86.47Zm-11.81-1a.51.51,0,1,1,.68.25.43.43,0,0,1-.22.06A.53.53,0,0,1,147.36,85.48Zm9.19-.25a.53.53,0,0,1-.33-.66.52.52,0,0,1,.65-.32h0a.51.51,0,0,1,.34.65.52.52,0,0,1-.49.36A.41.41,0,0,1,156.55,85.23Zm-6.35-.8a.51.51,0,0,1,.42-.59.52.52,0,0,1,.6.4.55.55,0,0,1-.41.61h-.11A.54.54,0,0,1,150.2,84.43Zm3.5.25a.52.52,0,0,1-.48-.55.52.52,0,1,1,.52.55Z"/><path class="cls-37" d="M230.41,108.84a.52.52,0,0,1,.48-.55.52.52,0,1,1,.06,1h0A.51.51,0,0,1,230.41,108.84Zm-2.61.27a.53.53,0,0,1-.41-.61.52.52,0,1,1,1,.21.5.5,0,0,1-.5.41Zm5.61-.7a.51.51,0,0,1,.34-.64.5.5,0,0,1,.64.33.52.52,0,0,1-.33.65.47.47,0,0,1-.16,0A.5.5,0,0,1,233.41,108.41Zm-8.61-.3a.51.51,0,0,1-.24-.68.49.49,0,0,1,.68-.24.51.51,0,0,1-.23,1A.43.43,0,0,1,224.8,108.11Zm11.42-.85a.52.52,0,0,1,.16-.72.53.53,0,0,1,.71.17.52.52,0,0,1-.17.71.45.45,0,0,1-.28.07A.49.49,0,0,1,236.22,107.26Zm-14.08-.86a.51.51,0,0,1-.06-.72.51.51,0,0,1,.79.66.56.56,0,0,1-.41.19A.45.45,0,0,1,222.14,106.4Zm16.5-1a.52.52,0,1,1,.72,0,.44.44,0,0,1-.37.15A.51.51,0,0,1,238.64,105.44ZM220,104.09a.51.51,0,0,1,.11-.71.52.52,0,0,1,.73.11.52.52,0,1,1-.84.6Zm20.55-1a.51.51,0,1,1,.7-.2.5.5,0,0,1-.46.27A.47.47,0,0,1,240.54,103.07Zm-22.06-1.75a.51.51,0,1,1,1-.37.51.51,0,0,1-.29.66.71.71,0,0,1-.2,0A.51.51,0,0,1,218.48,101.32Zm23.32-1a.51.51,0,1,1,.25-1,.5.5,0,0,1,.37.62h0a.52.52,0,0,1-.5.38Zm-24.09-2a.52.52,0,0,1,.45-.58.52.52,0,0,1,.57.45.52.52,0,0,1-.45.58h-.06A.53.53,0,0,1,217.71,98.26Zm24.1-1.45v0a.51.51,0,0,1,1,0v.06a.51.51,0,0,1-.51.51A.52.52,0,0,1,241.81,96.81Zm0,0h0Zm-23.64-1.09a.51.51,0,1,1,.13-1,.5.5,0,0,1,.44.57.51.51,0,0,1-.51.45Zm23.29-1.79a.5.5,0,0,1,.36-.62.52.52,0,1,1,.26,1H242A.49.49,0,0,1,241.46,93.88Zm-22.65-1.17a.52.52,0,0,1,.38-1,.54.54,0,0,1,.29.68.55.55,0,0,1-.49.32A.65.65,0,0,1,218.81,92.71Zm21.58-1.52a.52.52,0,0,1,.2-.7.51.51,0,0,1,.7.2.5.5,0,0,1-.2.69.47.47,0,0,1-.25.07A.54.54,0,0,1,240.39,91.19ZM220.17,90a.51.51,0,0,1-.11-.72.5.5,0,0,1,.71-.11.51.51,0,0,1-.3.93A.49.49,0,0,1,220.17,90Zm18.52-1.17a.52.52,0,1,1,.76-.7.51.51,0,0,1,0,.72.49.49,0,0,1-.35.14A.51.51,0,0,1,238.69,88.83Zm-16.53-1.12a.52.52,0,0,1,.07-.73.53.53,0,0,1,.72.07.51.51,0,1,1-.79.66Zm14.3-.74a.5.5,0,0,1-.15-.7.51.51,0,0,1,.7-.17.53.53,0,0,1,.17.72.54.54,0,0,1-.44.23A.5.5,0,0,1,236.46,87Zm-11.81-1a.52.52,0,0,1,.25-.69.52.52,0,0,1,.69.25.51.51,0,0,1-.26.68.39.39,0,0,1-.21.06A.53.53,0,0,1,224.65,86Zm9.19-.26a.54.54,0,0,1-.33-.65.52.52,0,0,1,.66-.33h0a.51.51,0,0,1,.33.65.51.51,0,0,1-.49.36A.45.45,0,0,1,233.84,85.73Zm-6.34-.8a.5.5,0,0,1,.41-.59.51.51,0,0,1,.6.41.52.52,0,0,1-.41.6H228A.51.51,0,0,1,227.5,84.93Zm3.49.25a.52.52,0,0,1-.48-.55.53.53,0,0,1,.55-.48.52.52,0,0,1,0,1Z"/><path class="cls-38" d="M112.69,21.41a4.83,4.83,0,1,1-4.8-4.86A4.85,4.85,0,0,1,112.69,21.41Z"/><path class="cls-39" d="M107.6,61.29s11.52,1.55,17.93-13.47l-3-6.34a4.29,4.29,0,0,0-5.77-2l-6.64,3.26a4.3,4.3,0,0,0-2.4,3.83Z"/><path class="cls-40" d="M108.8,23.61a.27.27,0,0,0-.51.16L112.12,45a1.47,1.47,0,0,0,.87,1.08,1.44,1.44,0,0,0,1.38-.12l1.23-.81a2.55,2.55,0,0,0,1-3.11Z"/><path class="cls-41" d="M276.91,22.47a4.83,4.83,0,1,0,4.86-4.8A4.82,4.82,0,0,0,276.91,22.47Z"/><path class="cls-42" d="M281.48,62.41s-11.55,1.41-17.76-13.69l3.11-6.3a4.28,4.28,0,0,1,5.79-1.93l6.6,3.35a4.3,4.3,0,0,1,2.35,3.86Z"/><path class="cls-43" d="M281.27,24.89,277.18,46a1.52,1.52,0,0,1-2.35,1l-1.15-.77a2.56,2.56,0,0,1-.9-3.13l8-18.31A.27.27,0,0,1,281.27,24.89Z"/><path class="cls-30" d="M140.52,66.54a5.12,5.12,0,0,1-.38-10.22c37.21-3.06,71.19-2.94,103.89.35a5.12,5.12,0,1,1-1,10.18c-32.08-3.23-65.45-3.34-102-.33Z"/><path class="cls-44" d="M192.2,119.42c-20.68-.14-41.51-1.3-62.36-3.48-7.64-.8-13.37-7.6-13.31-15.82l0-8.28c0-8.16,5.81-14.87,13.4-15.63,44.74-4.47,85.21-4.27,123.72.59,7.45.94,13,7.72,13,15.77l-.05,8.58c-.06,8.19-5.84,14.91-13.46,15.63A609.51,609.51,0,0,1,192.2,119.42ZM195.09,74a613.42,613.42,0,0,0-65,3.2c-7.09.71-12.48,7-12.53,14.67l-.05,8.29c0,7.72,5.3,14.1,12.45,14.85a623.14,623.14,0,0,0,123.14.84c7.12-.67,12.53-7,12.58-14.68l.06-8.57c0-7.57-5.17-13.94-12.14-14.82A490.84,490.84,0,0,0,195.09,74Z"/></g></svg>